<?xml version="1.0" encoding="utf-8"?>
<!-- Generator: Adobe Illustrator 22.1.0, SVG Export Plug-In . SVG Version: 6.00 Build 0)  -->
<svg version="1.1" id="레이어_1" xmlns="http://www.w3.org/2000/svg" xmlns:xlink="http://www.w3.org/1999/xlink" x="0px"
	 y="0px" viewBox="0 0 158.3 158.3" style="enable-background:new 0 0 158.3 158.3;" xml:space="preserve">
<style type="text/css">
	.st0{fill:#FFFFFF;}
	.st1{fill:#00B8FF;}
	.st2{fill:#C5C8CE;}
</style>
<rect x="0" class="st0" width="158.3" height="158.3"/>
<g>
	<g>
		<g>
			<g>
				<path class="st1" d="M67.5,50.6c0-7.8,20.6-7.9,25.1,2.1l11.6-6.7C101,38.4,89.4,31.6,78,31.6c-13.5,0-25,7.1-25,19.4
					c0,14.1,16.2,17.7,23,19.4c6.8,1.6,15.8,3.1,15.8,8.7c0,5.2-5.8,7.1-12.3,7.1c-8.2,0-14.5-2.7-17.3-9.1L51,83.5
					c3.4,9.9,14.6,16,28,16c17.4,0,27.1-8,27.1-21c0-10.2-8.9-16.8-19.8-19.4C76.8,56.7,67.5,55.4,67.5,50.6z"/>
			</g>
			<polygon class="st2" points="118.5,99.4 106.7,99.4 116.5,116.4 41.8,116.4 51.6,99.4 39.8,99.4 24.2,126.6 134.1,126.6 			"/>
		</g>
	</g>
</g>
</svg>
