<svg xmlns="http://www.w3.org/2000/svg" width="33" height="33" viewBox="0 0 33 33">
  <g id="그룹_553" data-name="그룹 553" transform="translate(5481 -4830)">
    <g id="그룹_502" data-name="그룹 502" transform="translate(-5544 -93)">
      <g id="그룹_109" data-name="그룹 109" transform="translate(63.654 4923.808)">
        <g id="그룹_86" data-name="그룹 86" transform="translate(0 0)">
          <rect id="사각형_128" data-name="사각형 128" width="31" height="31" rx="15.5" transform="translate(0.346 0.192)" fill="none" stroke="#646f7c" stroke-width="2"/>
        </g>
      </g>
      <g id="iconfinder_038_011_instagram_mobile_photo_network_android_material_1646917" transform="translate(68 4928)">
        <path id="패스_374" data-name="패스 374" d="M14.8,3H8.193A5.193,5.193,0,0,0,3,8.193V14.8A5.193,5.193,0,0,0,8.193,20H14.8A5.193,5.193,0,0,0,20,14.8V8.193A5.193,5.193,0,0,0,14.8,3Zm3.777,11.8A3.781,3.781,0,0,1,14.8,18.579H8.193A3.781,3.781,0,0,1,4.416,14.8V8.193A3.781,3.781,0,0,1,8.193,4.416H14.8a3.781,3.781,0,0,1,3.777,3.777Z" transform="translate(0)" fill="#646f7c"/>
        <path id="패스_375" data-name="패스 375" d="M11.749,7.5A4.249,4.249,0,1,0,16,11.749,4.249,4.249,0,0,0,11.749,7.5Zm0,7.081a2.833,2.833,0,1,1,2.833-2.833,2.833,2.833,0,0,1-2.833,2.833Z" transform="translate(-0.251 -0.251)" fill="#646f7c"/>
        <circle id="타원_2072" data-name="타원 2072" cx="0.944" cy="0.944" r="0.944" transform="translate(14.991 6.116)" fill="#646f7c"/>
      </g>
    </g>
  </g>
</svg>
